# xmcd
#
# Track frame offsets: 
#        187
#        11920
#        28335
#        41995
#        57262
#        71332
#        88472
#        106340
#        126695
#        145285
#        163455
#        176220
#        196302
#
# Disc length: 2807 seconds
#
# Revision: 4
# Processed by: cddbd v1.5.2PL0 Copyright (c) Steve Scherf et al.
# Submitted via: ExactAudioCopy v1.3
#
DISCID=d30af50d
DTITLE=Steve Earle - Essential Steve Earle
DYEAR=1993
DGENRE=Country
TTITLE0=Guitar Town
TTITLE1=Hillbilly Highway
TTITLE2=The Devil's Right Hand
TTITLE3=Goodbye's All We Got Left to Say
TTITLE4=Six Days On The Road
TTITLE5=Someday
TTITLE6=Good Ol' Boy ( Gettin' Tough )
TTITLE7=Copperhead Road
TTITLE8=The Rain Came Down
TTITLE9=I Ain't Ever Satisfied
TTITLE10=Nowhere  Road
TTITLE11=The Week of Living Dangerously
TTITLE12=Continental Trailways Blues
EXTD=YEAR: 1993
EXTT0=
EXTT1=
EXTT2=
EXTT3=
EXTT4=
EXTT5=
EXTT6=
EXTT7=
EXTT8=
EXTT9=
EXTT10=
EXTT11=
EXTT12=
PLAYORDER=
